<svg width="29" height="43" viewBox="0 0 29 43" fill="none" xmlns="http://www.w3.org/2000/svg">
<path d="M28 22.2718V14.4606C28 14.0261 27.828 13.6092 27.5219 13.3017C27.2157 12.9942 26.8004 12.8211 26.3672 12.8206C26.1525 12.8206 25.94 12.863 25.7418 12.9454C25.5435 13.0279 25.3634 13.1487 25.2118 13.3011C25.0601 13.4534 24.9399 13.6342 24.858 13.8332C24.776 14.0322 24.734 14.2454 24.7343 14.4606V21.2269C24.7337 21.3114 24.6998 21.3922 24.6401 21.4517C24.5803 21.5112 24.4995 21.5446 24.4153 21.5446V21.5446C24.3315 21.544 24.2513 21.5104 24.192 21.4509C24.1327 21.3915 24.0991 21.311 24.0986 21.2269V12.9168C24.0986 12.4278 23.9049 11.9588 23.5602 11.6131C23.2155 11.2673 22.748 11.073 22.2605 11.073V11.073C22.0191 11.073 21.7801 11.1207 21.5571 11.2134C21.3341 11.3061 21.1315 11.4419 20.9608 11.6131C20.7901 11.7843 20.6547 11.9875 20.5623 12.2112C20.47 12.4349 20.4224 12.6746 20.4224 12.9168V19.9336C20.4218 20.0177 20.3883 20.0982 20.329 20.1576C20.2697 20.2171 20.1895 20.2508 20.1057 20.2513V20.2513C20.0217 20.2513 19.9411 20.2179 19.8817 20.1583C19.8223 20.0987 19.7889 20.0179 19.7889 19.9336V11.6548C19.7886 11.3672 19.7317 11.0824 19.6215 10.8169C19.5113 10.5513 19.3499 10.3102 19.1466 10.1073C18.9434 9.90443 18.7022 9.7438 18.4369 9.6346C18.1716 9.52541 17.8874 9.46981 17.6006 9.47099H17.5471C16.9868 9.47099 16.4495 9.69423 16.0534 10.0916C15.6572 10.489 15.4346 11.0279 15.4346 11.5899V18.6918C15.4346 18.7429 15.4246 18.7935 15.4051 18.8408C15.3856 18.888 15.357 18.9309 15.321 18.9671C15.2849 19.0032 15.2421 19.0319 15.195 19.0515C15.1479 19.0711 15.0975 19.0811 15.0465 19.0811V19.0811C14.944 19.0805 14.8458 19.0393 14.7735 18.9663C14.7012 18.8934 14.6606 18.7947 14.6606 18.6918V4.00921C14.6662 3.52795 14.5601 3.05198 14.3507 2.61896C14.1412 2.18595 13.8342 1.80778 13.4538 1.51438C12.4612 0.771525 11.5109 0.932627 10.7413 1.37342C10.186 1.70336 9.72719 2.17431 9.41115 2.7388C9.09512 3.30329 8.93301 3.94137 8.94116 4.58873V27.7828C8.94091 27.8006 8.93443 27.8178 8.92285 27.8313C8.91127 27.8448 8.89532 27.8539 8.8778 27.8568C8.86027 27.8597 8.84227 27.8564 8.82695 27.8474C8.81162 27.8383 8.79994 27.8242 8.79394 27.8074C7.93959 25.0307 6.38705 18.0496 5.07988 16.1097C3.7727 14.1698 1.86771 14.6396 1.30335 16.2797C-0.0105141 20.1059 3.36895 29.056 3.36895 29.056C7.62284 42 16.5544 42 16.5544 42H19.4298C28 42 27.9576 31.647 27.9576 31.647L28 22.2718Z" stroke="#C5C5C5" stroke-width="1.5" stroke-miterlimit="10"/>
</svg>
