<svg width="81" height="79" viewBox="0 0 81 79" fill="none" xmlns="http://www.w3.org/2000/svg">
<rect width="80.8372" height="79" rx="15" fill="#D5F3BD"/>
<g clip-path="url(#clip0)">
<path fill-rule="evenodd" clip-rule="evenodd" d="M56.9444 53.6338C58.8211 56.1494 60.4404 58.2383 61.3172 60.6416C62.1716 62.985 62.5185 64.0519 60.5784 61.6261C58.7726 59.3651 57.0862 57.1676 54.6162 55.0825C54.4409 55.1237 54.2581 55.1611 54.0603 55.2023C31.7338 59.6496 15.4703 49.5721 18.3245 17C35.5246 22.9746 59.8807 20.5488 57.3585 51.1593C57.269 52.2974 57.1832 53.076 56.9444 53.6338ZM50.9524 48.7373C45.3409 36.6084 30.9242 32.4494 23.7718 24.1538C31.5361 39.3486 35.7708 38.6785 50.9524 48.7373Z" fill="#638E41"/>
</g>
<defs>
<clipPath id="clip0">
<rect width="44" height="46" fill="white" transform="translate(18 17)"/>
</clipPath>
</defs>
</svg>
