<svg width="81" height="79" viewBox="0 0 81 79" fill="none" xmlns="http://www.w3.org/2000/svg">
<rect width="80.8372" height="79" rx="15" fill="#D5F3BD"/>
<g clip-path="url(#clip0)">
<path fill-rule="evenodd" clip-rule="evenodd" d="M40.5204 30.9098V31.642C41.7907 29.7654 43.2709 28.2847 44.9825 27.1077C47.7275 25.2094 51.0162 24.1246 54.9131 23.4304C55.5375 23.3219 56.1349 23.7395 56.2426 24.3741C56.3502 25.0033 55.9358 25.6053 55.306 25.7138C51.7159 26.3484 48.7179 27.3301 46.2743 29.0169C44.3043 30.3783 42.668 32.2224 41.3439 34.7444C50.6933 35.6882 56.2264 34.7661 60.2471 31.821C64.2301 28.8976 66.9213 23.848 70.4361 16.5801C69.4026 16.6397 68.3262 16.694 67.2335 16.7428C60.1502 17.0736 52.3887 17.437 47.5445 21.7327C46.3066 22.8337 45.0955 24.1517 43.9168 25.6975C42.7703 27.1891 41.64 28.9247 40.5204 30.9098ZM37.0434 24.9761C36.6504 24.4446 36.2091 24.0215 35.7247 23.6798C34.772 23.0127 33.5986 22.6222 32.2045 22.313C31.5856 22.1775 31.1873 21.5591 31.3218 20.9354C31.4564 20.3117 32.07 19.9103 32.689 20.0459C34.3521 20.4147 35.7839 20.8974 37.0218 21.7598C36.9303 21.4778 36.8281 21.1957 36.7204 20.9246C36.1337 19.471 35.2725 18.1421 34.083 17.0899C32.7105 15.875 30.9504 15.6526 29.3411 15.4465L29.3034 15.4411L20.8583 14.9204L23.0436 19.4655C24.5722 22.2263 26.6445 23.7612 29.1796 24.5043C31.4133 25.1551 34.0561 25.2256 37.0434 24.9761ZM37.9422 27.7369C34.3791 28.084 31.1873 28.0352 28.3992 27.2162C25.1374 26.2616 22.4946 24.2982 20.5623 20.7835C20.5515 20.7618 20.5354 20.7347 20.5246 20.713L17.2844 13.9712C16.9453 13.2661 17.2413 12.42 17.9411 12.0837C18.1671 11.9753 18.4039 11.9319 18.6354 11.9481L29.481 12.6207C29.5402 12.6261 29.5994 12.6315 29.6586 12.6424L29.6856 12.6478C31.7094 12.9027 33.9269 13.1848 35.9346 14.9692C37.4686 16.3306 38.5774 18.0228 39.3201 19.8669C40.1329 21.8846 40.4989 24.0812 40.4989 26.1911C40.4989 26.3484 40.472 26.5002 40.4289 26.6412C40.9779 25.8114 41.5323 25.0304 42.0921 24.2982C43.3839 22.6005 44.6972 21.174 46.0159 20.0025C51.4629 15.1753 59.655 14.7902 67.1259 14.4431C68.8536 14.3617 70.5383 14.2858 72.2338 14.1394C72.433 14.1231 72.6375 14.1556 72.8259 14.2478C73.3964 14.5245 73.6386 15.2187 73.3587 15.7936C69.2519 24.3416 66.3454 30.1993 61.582 33.6922C56.9369 37.0984 50.7202 38.118 40.2352 36.9628V46.2429C44.6165 40.0869 48.9009 39.9838 55.8981 39.8157C57.3944 39.7777 59.0307 39.7398 60.893 39.6259C61.0814 39.615 61.2752 39.6476 61.4582 39.7398C62.0287 40.0164 62.2709 40.7106 61.991 41.2855C59.1329 47.2409 57.2814 50.9345 54.1219 53.0227C51.0969 55.0241 47.1139 55.3875 40.2298 54.639V69.8202H37.9261V54.9644C28.4799 56.0004 22.7476 55.1271 18.4147 52.0898C13.985 48.9711 11.1968 43.6937 7.46142 35.9214C7.18692 35.3465 7.42375 34.6522 7.99429 34.3756C8.18267 34.2834 8.38182 34.2509 8.58097 34.2617C10.115 34.381 11.6813 34.4461 13.2906 34.5112C20.2017 34.7878 27.9955 35.097 32.9096 39.4523C35.2133 41.4917 36.8334 43.1893 37.9368 45.0605L37.9422 27.7369ZM35.4179 52.8817C33.8462 50.7989 32.1884 49.2369 30.423 48.0165C28.2538 46.5195 25.8909 45.5161 23.302 44.6917C22.6938 44.5019 22.36 43.8456 22.5538 43.2381C22.7476 42.6252 23.3935 42.289 23.9963 42.4788C26.779 43.3629 29.3357 44.4531 31.7201 46.1019C33.7977 47.5338 35.7247 49.3833 37.5385 51.8674C37.404 49.8281 37.0218 48.2443 36.2898 46.8233C35.3425 44.9737 33.7762 43.2978 31.3918 41.1879C27.0804 37.3696 19.728 37.0767 13.1991 36.8163C12.2357 36.7784 11.2937 36.7404 10.3895 36.6916C13.5436 43.1568 16.0733 47.6097 19.7442 50.1806C23.2481 52.6376 27.9363 53.4837 35.4179 52.8817ZM41.1771 49.0145C42.0383 48.2443 43.0071 47.5934 44.0405 47.0402C46.4196 45.7656 49.1539 45.0063 51.6836 44.5615C52.308 44.4531 52.9054 44.8707 53.0131 45.5053C53.1207 46.1344 52.7063 46.7365 52.0765 46.845C49.7567 47.2572 47.2593 47.946 45.117 49.0904C43.5561 49.9257 42.189 51.0104 41.2363 52.4098C47.0924 53.001 50.4726 52.681 52.8785 51.0918C55.2307 49.5352 56.8615 46.6117 59.0899 42.034C57.9972 42.0774 56.953 42.1045 55.9627 42.1262C49.2508 42.2835 45.327 42.3812 41.1771 49.0145Z" fill="#638E41"/>
</g>
<defs>
<clipPath id="clip0">
<rect width="66.1395" height="57.8721" fill="white" transform="translate(7.34885 11.9419)"/>
</clipPath>
</defs>
</svg>
