<svg width="187" height="78" viewBox="0 0 187 78" fill="none" xmlns="http://www.w3.org/2000/svg">
<path d="M17.0089 51.32H24.0489C25.4889 51.3733 26.3689 51.7467 26.6889 52.44C26.9556 52.9467 27.0889 53.6933 27.0889 54.68V63.48C27.0889 64.3333 26.7156 65.1467 25.9689 65.92C23.7289 68.24 20.3689 69.4 15.8889 69.4C11.9156 69.4 8.46224 67.9067 5.52891 64.92C2.59557 61.9067 1.12891 58.28 1.12891 54.04C1.12891 49.8 2.62224 46.2667 5.60891 43.44C8.59557 40.5867 12.1156 39.16 16.1689 39.16C19.3156 39.16 22.2889 40.2 25.0889 42.28C25.8089 42.8133 26.1689 43.4133 26.1689 44.08C26.1689 44.72 25.8622 45.4667 25.2489 46.32C24.2089 47.7333 23.2622 48.44 22.4089 48.44C21.9022 48.44 21.0889 48.08 19.9689 47.36C18.8489 46.6133 17.5156 46.24 15.9689 46.24C13.9422 46.24 12.1422 46.96 10.5689 48.4C8.99557 49.8133 8.20891 51.68 8.20891 54C8.20891 56.2933 9.00891 58.2533 10.6089 59.88C12.2089 61.48 14.0222 62.28 16.0489 62.28C17.5156 62.28 18.8356 62.04 20.0089 61.56V57.2H16.8489C16.0222 57.2 15.4356 57.0933 15.0889 56.88C14.7422 56.6667 14.5156 56.36 14.4089 55.96C14.3022 55.5333 14.2489 54.9733 14.2489 54.28C14.2489 53.56 14.3022 52.9867 14.4089 52.56C14.5422 52.1333 14.7689 51.84 15.0889 51.68C15.5689 51.44 16.2089 51.32 17.0089 51.32ZM44.6036 48.16C45.1103 48.32 45.5236 48.6 45.8436 49C46.1903 49.3733 46.3636 49.9867 46.3636 50.84C46.3636 51.6933 46.1103 52.6267 45.6036 53.64C45.0969 54.6533 44.3636 55.16 43.4036 55.16C42.9236 55.16 42.4569 55.0533 42.0036 54.84C41.5769 54.6267 41.0036 54.52 40.2836 54.52C39.5636 54.52 38.8836 54.7733 38.2436 55.28C37.6303 55.7867 37.3236 56.4 37.3236 57.12V65.52C37.3236 66.1333 37.2969 66.6 37.2436 66.92C37.2169 67.2133 37.0969 67.56 36.8836 67.96C36.4836 68.6533 35.4436 69 33.7636 69C32.4836 69 31.5636 68.7733 31.0036 68.32C30.5769 67.9467 30.3369 67.3733 30.2836 66.6C30.2836 66.3333 30.2836 65.9467 30.2836 65.44V51.4C30.2836 50.7867 30.2969 50.3333 30.3236 50.04C30.3769 49.72 30.4969 49.3733 30.6836 49C31.0569 48.28 32.0969 47.92 33.8036 47.92C35.4036 47.92 36.4036 48.2267 36.8036 48.84C37.0969 49.2667 37.2436 49.7067 37.2436 50.16C37.3769 49.9733 37.5636 49.7467 37.8036 49.48C38.0703 49.2133 38.6169 48.8533 39.4436 48.4C40.2703 47.9467 40.9903 47.72 41.6036 47.72C42.2436 47.72 42.7769 47.76 43.2036 47.84C43.6303 47.8933 44.0969 48 44.6036 48.16ZM67.6739 55.96C67.6739 57.5867 67.2606 58.8 66.4339 59.6C65.6339 60.3733 64.7406 60.76 63.7539 60.76H54.2739C54.2739 61.5067 54.7139 62.1333 55.5939 62.64C56.4739 63.1467 57.3539 63.4 58.2339 63.4C59.7806 63.4 60.9939 63.24 61.8739 62.92L62.3139 62.76C62.9539 62.4667 63.4872 62.32 63.9139 62.32C64.7672 62.32 65.5006 62.92 66.1139 64.12C66.4606 64.84 66.6339 65.4533 66.6339 65.96C66.6339 68.3333 63.7939 69.52 58.1139 69.52C56.1406 69.52 54.3806 69.1867 52.8339 68.52C51.3139 67.8267 50.1272 66.92 49.2739 65.8C47.5939 63.64 46.7539 61.2267 46.7539 58.56C46.7539 55.2 47.8339 52.52 49.9939 50.52C52.1806 48.4933 54.9006 47.48 58.1539 47.48C61.8606 47.48 64.5806 48.7867 66.3139 51.4C67.2206 52.7867 67.6739 54.3067 67.6739 55.96ZM59.2339 57.12C60.2472 57.12 60.7539 56.6933 60.7539 55.84C60.7539 55.2267 60.5139 54.7333 60.0339 54.36C59.5806 53.9867 58.9139 53.8 58.0339 53.8C57.1806 53.8 56.3272 54.16 55.4739 54.88C54.6206 55.5733 54.1939 56.32 54.1939 57.12H59.2339ZM90.6036 55.96C90.6036 57.5867 90.1903 58.8 89.3636 59.6C88.5636 60.3733 87.6703 60.76 86.6836 60.76H77.2036C77.2036 61.5067 77.6436 62.1333 78.5236 62.64C79.4036 63.1467 80.2836 63.4 81.1636 63.4C82.7103 63.4 83.9236 63.24 84.8036 62.92L85.2436 62.76C85.8836 62.4667 86.4169 62.32 86.8436 62.32C87.6969 62.32 88.4303 62.92 89.0436 64.12C89.3903 64.84 89.5636 65.4533 89.5636 65.96C89.5636 68.3333 86.7236 69.52 81.0436 69.52C79.0703 69.52 77.3103 69.1867 75.7636 68.52C74.2436 67.8267 73.0569 66.92 72.2036 65.8C70.5236 63.64 69.6836 61.2267 69.6836 58.56C69.6836 55.2 70.7636 52.52 72.9236 50.52C75.1103 48.4933 77.8303 47.48 81.0836 47.48C84.7903 47.48 87.5103 48.7867 89.2436 51.4C90.1503 52.7867 90.6036 54.3067 90.6036 55.96ZM82.1636 57.12C83.1769 57.12 83.6836 56.6933 83.6836 55.84C83.6836 55.2267 83.4436 54.7333 82.9636 54.36C82.5103 53.9867 81.8436 53.8 80.9636 53.8C80.1103 53.8 79.2569 54.16 78.4036 54.88C77.5503 55.5733 77.1236 56.32 77.1236 57.12H82.1636ZM104.933 47.92C107.6 47.92 109.813 48.9467 111.573 51C113.36 53.0267 114.253 55.5067 114.253 58.44V65.48C114.253 66.0933 114.227 66.56 114.173 66.88C114.147 67.1733 114.04 67.5067 113.853 67.88C113.48 68.6 112.44 68.96 110.733 68.96C108.84 68.96 107.747 68.4667 107.453 67.48C107.293 67.0267 107.213 66.3467 107.213 65.44V58.4C107.213 57.3067 106.893 56.4533 106.253 55.84C105.64 55.2267 104.8 54.92 103.733 54.92C102.693 54.92 101.84 55.24 101.173 55.88C100.533 56.52 100.213 57.36 100.213 58.4V65.48C100.213 66.0933 100.187 66.56 100.133 66.88C100.107 67.1733 99.9866 67.5067 99.7733 67.88C99.4266 68.6 98.3999 68.96 96.6933 68.96C95.0133 68.96 93.9866 68.6 93.6133 67.88C93.4266 67.48 93.3066 67.1333 93.2533 66.84C93.2266 66.52 93.2133 66.0533 93.2133 65.44V51.28C93.2133 50.6933 93.2266 50.2533 93.2533 49.96C93.3066 49.64 93.4399 49.2933 93.6533 48.92C94.0266 48.2533 95.0533 47.92 96.7333 47.92C98.3599 47.92 99.3599 48.2267 99.7333 48.84C99.9999 49.2933 100.133 49.84 100.133 50.48C100.24 50.2933 100.48 50.0267 100.853 49.68C101.227 49.3333 101.587 49.0533 101.933 48.84C102.84 48.2267 103.84 47.92 104.933 47.92Z" fill="#F4F4F4"/>
<path d="M168.937 16.1936C173.001 16.2754 176.916 17.7486 180.041 20.3715C181.891 21.8258 183.375 23.7008 184.371 25.8436C185.496 28.2464 186.052 30.8801 185.996 33.5371C186.036 36.1882 185.462 38.8121 184.321 41.2C183.323 43.3362 181.839 45.2042 179.99 46.6517C176.863 49.2688 172.948 50.738 168.887 50.8194H161.942C161.648 50.8226 161.366 50.9343 161.149 51.1333C160.931 51.3323 160.793 51.6049 160.761 51.8996C160.155 57.1372 155.431 62.5787 155.431 62.5787C153.644 64.8554 151.37 66.6947 148.779 67.9591C145.974 69.3418 142.887 70.0399 139.765 69.9971C136.656 70.051 133.579 69.3521 130.792 67.9591C128.217 66.6635 125.973 64.7878 124.231 62.4768C120.791 58.003 118.949 52.4878 119.002 46.8249V27.1683C118.992 26.3961 119.022 25.624 119.093 24.8551C119.2 24.2469 119.409 23.6614 119.709 23.1228C119.893 22.7878 120.143 22.494 120.443 22.2593C120.743 22.0246 121.087 21.8539 121.455 21.7574C123.621 21.2274 125.88 21.2274 128.046 21.7574C128.407 21.8487 128.744 22.0181 129.033 22.2539C129.322 22.4897 129.557 22.7862 129.722 23.1228C130.29 24.4023 130.556 25.7977 130.499 27.1988V46.7638C130.498 49.4126 131.165 52.0181 132.437 54.335C133.108 55.5736 134.117 56.592 135.344 57.2697C136.75 58.0241 138.326 58.3963 139.917 58.3499C141.297 58.4409 142.676 58.1639 143.916 57.5469C145.156 56.9298 146.214 55.9943 146.983 54.8343C148.557 52.4174 149.367 49.5744 149.304 46.6822V26.7607L149.183 11.3431C149.183 11.2891 149.162 11.2372 149.124 11.199C149.086 11.1608 149.035 11.1393 148.981 11.1393H144.126C144.073 11.1393 144.021 11.1178 143.983 11.0796C143.945 11.0414 143.924 10.9896 143.924 10.9355C143.925 10.8818 143.947 10.8305 143.985 10.7929L154.624 0.0627175C154.642 0.0429504 154.664 0.027168 154.688 0.0163715C154.712 0.00557506 154.739 0 154.765 0C154.792 0 154.818 0.00557506 154.842 0.0163715C154.867 0.027168 154.889 0.0429504 154.906 0.0627175L166.01 10.803C166.047 10.8411 166.068 10.8924 166.068 10.9457C166.068 10.999 166.047 11.0503 166.01 11.0884C165.99 11.1118 165.965 11.1304 165.937 11.1428C165.909 11.1551 165.879 11.1609 165.848 11.1597H161.67C161.423 11.1597 161.187 11.2585 161.013 11.4343C160.839 11.6101 160.741 11.8485 160.741 12.0972V16.1732L168.937 16.1936ZM172.753 37.8475C173.386 37.3345 173.888 36.6747 174.214 35.9244C174.541 35.174 174.684 34.355 174.63 33.5371C174.687 32.7158 174.546 31.8928 174.219 31.1386C173.892 30.3843 173.389 29.7213 172.753 29.2063C171.647 28.2934 170.265 27.79 168.836 27.7797H160.761V39.2843H168.897C170.292 39.2505 171.636 38.7445 172.712 37.8475" fill="#00FF62"/>
</svg>
