<svg width="147" height="148" viewBox="0 0 147 148" fill="none" xmlns="http://www.w3.org/2000/svg">
<g filter="url(#filter0_d)">
<rect x="13.7438" y="19.4875" width="117.512" height="114.537" rx="15" fill="white"/>
</g>
<path d="M102.812 58.4181L90.871 46.4771C90.2348 45.841 89.2034 45.841 88.5672 46.4771L81.9164 53.1279C79.8704 55.1739 79.8704 58.5029 81.9164 60.5488L81.9902 60.6227L64.3331 78.2798L62.8053 76.7521C61.1088 75.0556 58.8854 74.2076 56.662 74.2076C54.4387 74.2076 52.2153 75.0559 50.5188 76.7521L48.4561 78.8148L48.4564 78.8151C48.4529 78.8185 48.4489 78.8217 48.4454 78.8254C42.2958 84.9751 40.7179 102.736 43.7612 105.779C44.765 106.783 47.3704 107.284 50.6319 107.284C57.2581 107.284 66.5937 105.216 70.715 101.095C70.7184 101.092 70.7219 101.087 70.7253 101.084L70.7256 101.084L72.7883 99.0216C76.1811 95.6289 76.1811 90.1278 72.7883 86.7351L71.2329 85.1796L88.8978 67.5147C90.9536 69.4112 94.1657 69.3676 96.1611 67.3721L102.812 60.7214C103.448 60.0857 103.448 59.0543 102.812 58.4181ZM97.0527 61.8737L87.4154 52.2364L89.719 49.9325L99.3563 59.5698L97.0527 61.8737ZM70.7181 96.4696L70.717 96.4685L68.4134 98.7888C68.4047 98.7974 68.3964 98.8061 68.3877 98.8148C66.9018 100.287 64.1851 101.629 60.7323 102.598C57.4991 103.506 53.8178 104.026 50.6316 104.026C47.959 104.026 46.5654 103.658 46.089 103.449C45.6923 102.554 45.0757 99.073 45.9731 93.3051C46.8106 87.9198 48.6307 83.2687 50.7259 81.1527C50.7346 81.1443 50.743 81.1359 50.7516 81.1276L53.0226 78.8722L53.0194 78.8687C54.0194 77.9622 55.3025 77.4659 56.6618 77.4659C58.1122 77.4659 59.4757 78.0308 60.5015 79.0563L70.4841 89.0392C71.5098 90.0647 72.0745 91.4285 72.0745 92.8786C72.0751 94.2148 71.5955 95.4771 70.7181 96.4696ZM66.6369 80.5837L84.2941 62.9265L86.5864 65.2189L68.9293 82.8761L66.6369 80.5837ZM91.0439 65.0688L84.22 58.2452C83.4441 57.4694 83.4441 56.2074 84.22 55.4318L85.1115 54.5403L94.7488 64.1776L93.8573 65.0691C93.0817 65.8444 91.8197 65.8444 91.0439 65.0688Z" fill="#638E41"/>
<path d="M62.689 85.2948C61.8731 84.4788 60.7925 83.9589 59.6471 83.8314C58.7538 83.7309 57.9474 84.3755 57.8478 85.2699C57.748 86.1641 58.3923 86.9696 59.2864 87.0692C59.706 87.1159 60.0859 87.2991 60.3854 87.5986L64.3783 91.5918C65.0982 92.3117 65.0982 93.4831 64.3786 94.2027L62.6319 95.9491C62.5883 95.9927 62.5456 96.04 62.5081 96.087C62.2934 96.3548 61.9253 96.6075 61.4434 96.8179C60.6188 97.1777 60.2417 98.1376 60.6015 98.9622C60.8687 99.5747 61.4671 99.9403 62.0955 99.9403C62.3131 99.9403 62.5341 99.8964 62.7458 99.8041C63.6867 99.3935 64.4404 98.8549 64.9877 98.2008L66.6822 96.5063C68.6722 94.5163 68.6722 91.2782 66.6822 89.2879L62.689 85.2948Z" fill="#638E41"/>
<circle cx="126.756" cy="19.5" r="19.5" fill="#638E41"/>
<path d="M122.696 24.28C124.232 22.952 125.44 21.864 126.32 21.016C127.216 20.152 127.96 19.256 128.552 18.328C129.144 17.4 129.44 16.472 129.44 15.544C129.44 14.584 129.208 13.832 128.744 13.288C128.296 12.744 127.584 12.472 126.608 12.472C125.664 12.472 124.928 12.776 124.4 13.384C123.888 13.976 123.616 14.776 123.584 15.784H120.944C120.992 13.96 121.536 12.568 122.576 11.608C123.632 10.632 124.968 10.144 126.584 10.144C128.328 10.144 129.688 10.624 130.664 11.584C131.656 12.544 132.152 13.824 132.152 15.424C132.152 16.576 131.856 17.688 131.264 18.76C130.688 19.816 129.992 20.768 129.176 21.616C128.376 22.448 127.352 23.416 126.104 24.52L125.024 25.48H132.632V27.76H120.968V25.768L122.696 24.28Z" fill="white"/>
<defs>
<filter id="filter0_d" x="0.743774" y="6.48755" width="143.512" height="140.537" filterUnits="userSpaceOnUse" color-interpolation-filters="sRGB">
<feFlood flood-opacity="0" result="BackgroundImageFix"/>
<feColorMatrix in="SourceAlpha" type="matrix" values="0 0 0 0 0 0 0 0 0 0 0 0 0 0 0 0 0 0 127 0"/>
<feMorphology radius="3" operator="dilate" in="SourceAlpha" result="effect1_dropShadow"/>
<feOffset/>
<feGaussianBlur stdDeviation="5"/>
<feColorMatrix type="matrix" values="0 0 0 0 0 0 0 0 0 0 0 0 0 0 0 0 0 0 0.08 0"/>
<feBlend mode="normal" in2="BackgroundImageFix" result="effect1_dropShadow"/>
<feBlend mode="normal" in="SourceGraphic" in2="effect1_dropShadow" result="shape"/>
</filter>
</defs>
</svg>
