<svg width="147" height="148" viewBox="0 0 147 148" fill="none" xmlns="http://www.w3.org/2000/svg">
<g filter="url(#filter0_d)">
<rect x="13.7437" y="19.4875" width="117.512" height="114.537" rx="15" fill="white"/>
</g>
<path d="M102.812 58.4181L90.871 46.4771C90.2348 45.841 89.2033 45.841 88.5671 46.4771L81.9163 53.1279C79.8704 55.1739 79.8704 58.5029 81.9163 60.5488L81.9902 60.6227L64.333 78.2798L62.8053 76.7521C61.1087 75.0556 58.8854 74.2076 56.662 74.2076C54.4386 74.2076 52.2152 75.0559 50.5187 76.7521L48.456 78.8148L48.4563 78.8151C48.4529 78.8185 48.4488 78.8217 48.4454 78.8254C42.2957 84.9751 40.7178 102.736 43.7612 105.779C44.7649 106.783 47.3703 107.284 50.6318 107.284C57.2581 107.284 66.5936 105.216 70.7149 101.095C70.7184 101.092 70.7218 101.087 70.7253 101.084L70.7256 101.084L72.7882 99.0216C76.181 95.6289 76.181 90.1278 72.7882 86.7351L71.2328 85.1796L88.8977 67.5147C90.9535 69.4112 94.1656 69.3676 96.1611 67.3721L102.812 60.7214C103.448 60.0857 103.448 59.0543 102.812 58.4181ZM97.0526 61.8737L87.4153 52.2364L89.7189 49.9325L99.3562 59.5698L97.0526 61.8737ZM70.7181 96.4696L70.7169 96.4685L68.4133 98.7888C68.4047 98.7974 68.3963 98.8061 68.3876 98.8148C66.9017 100.287 64.185 101.629 60.7322 102.598C57.499 103.506 53.8177 104.026 50.6315 104.026C47.9589 104.026 46.5653 103.658 46.089 103.449C45.6923 102.554 45.0757 99.073 45.973 93.3051C46.8106 87.9198 48.6306 83.2687 50.7259 81.1527C50.7345 81.1443 50.7429 81.1359 50.7515 81.1276L53.0225 78.8722L53.0194 78.8687C54.0194 77.9622 55.3025 77.4659 56.6617 77.4659C58.1121 77.4659 59.4757 78.0308 60.5014 79.0563L70.4841 89.0392C71.5098 90.0647 72.0744 91.4285 72.0744 92.8786C72.075 94.2148 71.5955 95.4771 70.7181 96.4696ZM66.6369 80.5837L84.294 62.9265L86.5864 65.2189L68.9292 82.8761L66.6369 80.5837ZM91.0438 65.0688L84.2199 58.2452C83.444 57.4694 83.444 56.2074 84.2199 55.4318L85.1114 54.5403L94.7487 64.1776L93.8572 65.0691C93.0816 65.8444 91.8196 65.8444 91.0438 65.0688Z" fill="#638E41"/>
<path d="M62.689 85.2948C61.8731 84.4788 60.7925 83.9589 59.6471 83.8314C58.7538 83.7309 57.9474 84.3755 57.8478 85.2699C57.748 86.1641 58.3923 86.9696 59.2864 87.0692C59.706 87.1159 60.0859 87.2991 60.3854 87.5986L64.3783 91.5918C65.0982 92.3117 65.0982 93.4831 64.3786 94.2027L62.6319 95.9491C62.5883 95.9927 62.5456 96.04 62.5081 96.087C62.2934 96.3548 61.9253 96.6075 61.4434 96.8179C60.6188 97.1777 60.2417 98.1376 60.6015 98.9622C60.8687 99.5747 61.4671 99.9403 62.0955 99.9403C62.3131 99.9403 62.5341 99.8964 62.7458 99.8041C63.6867 99.3935 64.4404 98.8549 64.9877 98.2008L66.6822 96.5063C68.6722 94.5163 68.6722 91.2782 66.6822 89.2879L62.689 85.2948Z" fill="#638E41"/>
<circle cx="126.756" cy="19.5" r="19.5" fill="#638E41"/>
<path d="M123.336 13V10.504H128.328V28H125.568V13H123.336Z" fill="white"/>
<defs>
<filter id="filter0_d" x="0.743744" y="6.48755" width="143.512" height="140.537" filterUnits="userSpaceOnUse" color-interpolation-filters="sRGB">
<feFlood flood-opacity="0" result="BackgroundImageFix"/>
<feColorMatrix in="SourceAlpha" type="matrix" values="0 0 0 0 0 0 0 0 0 0 0 0 0 0 0 0 0 0 127 0"/>
<feMorphology radius="3" operator="dilate" in="SourceAlpha" result="effect1_dropShadow"/>
<feOffset/>
<feGaussianBlur stdDeviation="5"/>
<feColorMatrix type="matrix" values="0 0 0 0 0 0 0 0 0 0 0 0 0 0 0 0 0 0 0.08 0"/>
<feBlend mode="normal" in2="BackgroundImageFix" result="effect1_dropShadow"/>
<feBlend mode="normal" in="SourceGraphic" in2="effect1_dropShadow" result="shape"/>
</filter>
</defs>
</svg>
