<svg width="146" height="147" viewBox="0 0 146 147" fill="none" xmlns="http://www.w3.org/2000/svg">
<g filter="url(#filter0_d)">
<rect x="13" y="19.6033" width="117.512" height="113.961" rx="15" fill="white"/>
</g>
<path d="M102.068 58.3377L90.1273 46.4569C89.4911 45.8239 88.4597 45.8239 87.8235 46.4569L81.1727 53.0742C79.1267 55.1099 79.1267 58.4221 81.1727 60.4577L81.2465 60.5312L63.5894 78.0995L62.0616 76.5795C60.3651 74.8915 58.1417 74.0478 55.9183 74.0478C53.695 74.0478 51.4716 74.8918 49.7751 76.5795L47.7124 78.6317L47.7127 78.632C47.7092 78.6355 47.7052 78.6386 47.7017 78.6424C41.5521 84.761 39.9741 102.432 43.0175 105.46C44.0213 106.459 46.6267 106.958 49.8882 106.958C56.5144 106.958 65.85 104.9 69.9713 100.8C69.9747 100.796 69.9782 100.792 69.9816 100.789L69.9819 100.789L72.0446 98.7369C75.4374 95.3612 75.4374 89.8879 72.0446 86.5122L70.4892 84.9646L88.1541 67.3885C90.2099 69.2755 93.422 69.2321 95.4175 67.2467L102.068 60.6294C102.704 59.997 102.704 58.9707 102.068 58.3377ZM96.309 61.776L86.6717 52.1872L88.9753 49.8949L98.6126 59.4837L96.309 61.776ZM69.9744 96.1977L69.9733 96.1966L67.6697 98.5052C67.661 98.5138 67.6527 98.5224 67.644 98.531C66.1581 99.9954 63.4413 101.331 59.9886 102.296C56.7554 103.199 53.0741 103.716 49.8879 103.716C47.2153 103.716 45.8217 103.35 45.3453 103.142C44.9486 102.251 44.332 98.788 45.2293 93.0491C46.0669 87.6909 47.8869 83.0633 49.9822 80.9579C49.9909 80.9496 49.9992 80.9412 50.0079 80.9329L52.2789 78.6889L52.2757 78.6854C53.2757 77.7834 54.5588 77.2897 55.9181 77.2897C57.3685 77.2897 58.732 77.8518 59.7577 78.872L69.7404 88.8047C70.7661 89.825 71.3308 91.182 71.3308 92.6248C71.3314 93.9542 70.8518 95.2102 69.9744 96.1977ZM65.8932 80.3918L83.5504 62.8235L85.8427 65.1043L68.1856 82.6726L65.8932 80.3918ZM90.3002 64.955L83.4763 58.1658C82.7004 57.3938 82.7004 56.1382 83.4763 55.3665L84.3678 54.4795L94.0051 64.0683L93.1136 64.9553C92.338 65.7267 91.076 65.7267 90.3002 64.955Z" fill="#638E41"/>
<path d="M61.9452 85.0793C61.1293 84.2675 60.0488 83.7502 58.9033 83.6233C58.01 83.5234 57.2036 84.1647 57.1041 85.0546C57.0042 85.9442 57.6485 86.7457 58.5427 86.8448C58.9622 86.8913 59.3422 87.0736 59.6417 87.3715L63.6346 91.3446C64.3544 92.0608 64.3544 93.2263 63.6348 93.9422L61.8881 95.6799C61.8445 95.7232 61.8018 95.7703 61.7643 95.8171C61.5497 96.0835 61.1815 96.335 60.6997 96.5442C59.8751 96.9022 59.498 97.8573 59.8578 98.6777C60.1249 99.2872 60.7233 99.6509 61.3517 99.6509C61.5693 99.6509 61.7903 99.6072 62.0021 99.5154C62.943 99.1069 63.6966 98.5709 64.2439 97.9201L65.9384 96.2342C67.9284 94.2543 67.9284 91.0325 65.9384 89.0523L61.9452 85.0793Z" fill="#638E41"/>
<ellipse cx="126.013" cy="19.6155" rx="19.5" ry="19.4019" fill="#638E41"/>
<path d="M120.392 15.0271C120.488 13.5391 121.056 12.3791 122.096 11.5471C123.152 10.7151 124.496 10.2991 126.128 10.2991C127.248 10.2991 128.216 10.4991 129.032 10.8991C129.848 11.2991 130.464 11.8431 130.88 12.5311C131.296 13.2191 131.504 13.9951 131.504 14.8591C131.504 15.8511 131.24 16.6991 130.712 17.4031C130.184 18.1071 129.552 18.5791 128.816 18.8191V18.9151C129.76 19.2031 130.496 19.7311 131.024 20.4991C131.552 21.2511 131.816 22.2191 131.816 23.4031C131.816 24.3471 131.6 25.1871 131.168 25.9231C130.736 26.6591 130.096 27.2431 129.248 27.6751C128.4 28.0911 127.384 28.2991 126.2 28.2991C124.472 28.2991 123.048 27.8591 121.928 26.9791C120.824 26.0831 120.232 24.8031 120.152 23.1391H122.792C122.856 23.9871 123.184 24.6831 123.776 25.2271C124.368 25.7551 125.168 26.0191 126.176 26.0191C127.152 26.0191 127.904 25.7551 128.432 25.2271C128.96 24.6831 129.224 23.9871 129.224 23.1391C129.224 22.0191 128.864 21.2271 128.144 20.7631C127.44 20.2831 126.352 20.0431 124.88 20.0431H124.256V17.7871H124.904C126.2 17.7711 127.184 17.5551 127.856 17.1391C128.544 16.7231 128.888 16.0671 128.888 15.1711C128.888 14.4031 128.64 13.7951 128.144 13.3471C127.648 12.8831 126.944 12.6511 126.032 12.6511C125.136 12.6511 124.44 12.8831 123.944 13.3471C123.448 13.7951 123.152 14.3551 123.056 15.0271H120.392Z" fill="white"/>
<defs>
<filter id="filter0_d" x="0" y="6.60327" width="143.512" height="139.961" filterUnits="userSpaceOnUse" color-interpolation-filters="sRGB">
<feFlood flood-opacity="0" result="BackgroundImageFix"/>
<feColorMatrix in="SourceAlpha" type="matrix" values="0 0 0 0 0 0 0 0 0 0 0 0 0 0 0 0 0 0 127 0"/>
<feMorphology radius="3" operator="dilate" in="SourceAlpha" result="effect1_dropShadow"/>
<feOffset/>
<feGaussianBlur stdDeviation="5"/>
<feColorMatrix type="matrix" values="0 0 0 0 0 0 0 0 0 0 0 0 0 0 0 0 0 0 0.08 0"/>
<feBlend mode="normal" in2="BackgroundImageFix" result="effect1_dropShadow"/>
<feBlend mode="normal" in="SourceGraphic" in2="effect1_dropShadow" result="shape"/>
</filter>
</defs>
</svg>
